<svg width="86" height="93" viewBox="0 0 86 93" fill="none" xmlns="http://www.w3.org/2000/svg">
<path fill-rule="evenodd" clip-rule="evenodd" d="M41.4661 0.24198C41.2291 0.478965 41.2203 0.530356 41.2426 1.5663C41.2552 2.15901 41.225 2.68446 41.1755 2.7338C41.1259 2.78314 40.6008 2.89414 40.0086 2.98028C37.4119 3.35832 35.2288 4.11998 32.9118 5.45644C31.2389 6.42141 30.332 7.10036 28.962 8.41362C27.5457 9.77131 26.6108 10.9553 25.4064 12.9164C25.0606 13.4798 24.3956 14.798 24.3956 14.9205C24.3956 14.9456 24.2871 15.2034 24.1546 15.4932C23.409 17.1233 22.7457 20.133 22.7217 21.9948C22.7051 23.2824 22.7565 23.2271 21.4679 23.3449C20.4919 23.4341 20.3373 23.4735 20.175 23.6739C19.9199 23.9889 19.9445 24.3321 20.2437 24.6312C20.4946 24.8821 20.5064 24.8837 21.5896 24.8202C22.1907 24.785 24.004 24.6913 25.6192 24.612C27.2343 24.5327 29.3266 24.4242 30.2688 24.3707C32.9744 24.2174 33.6591 24.1821 35.0163 24.1264C36.351 24.0716 38.8048 23.9415 41.5258 23.7813C42.4142 23.729 43.7827 23.6631 44.567 23.6348C45.3513 23.6065 46.3424 23.5637 46.7695 23.5399C47.1966 23.516 48.6031 23.4498 49.8952 23.3928C51.1873 23.336 52.9493 23.2477 53.8107 23.1967C54.6721 23.1457 55.8835 23.0787 56.5026 23.0478C57.1217 23.0168 57.8926 22.9726 58.2156 22.9495C58.5387 22.9264 59.3536 22.882 60.0266 22.8506C64.4149 22.6468 65.5977 22.5474 65.7989 22.3653C66.0619 22.1272 66.0683 21.5269 65.8102 21.2933C65.6521 21.1502 65.4529 21.1276 64.5388 21.1487C63.9425 21.1625 63.4225 21.1415 63.3831 21.1022C63.3438 21.0627 63.2376 20.5374 63.1471 19.9346C62.9636 18.7109 62.9276 18.5378 62.7262 17.9087C62.6486 17.6664 62.5337 17.27 62.471 17.0277C62.4081 16.7854 62.317 16.5108 62.2685 16.4173C62.2198 16.3238 62.1801 16.1974 62.1801 16.1366C62.1801 15.9072 61.2488 13.8317 60.7617 12.9755C60.1169 11.8421 59.5494 10.9696 59.2569 10.6616C59.1309 10.5289 58.9115 10.2661 58.7694 10.0777C58.1678 9.27972 56.9438 8.05672 55.9437 7.25414C55.1665 6.6304 53.0211 5.21789 52.3913 4.91522C49.6127 3.58004 47.0152 2.89522 44.2341 2.76483C43.3564 2.72362 42.9368 2.66479 42.8415 2.56954C42.7592 2.48732 42.7019 2.21157 42.6969 1.87494C42.6781 0.60759 42.6502 0.405843 42.4651 0.201357C42.2086 -0.0820271 41.7723 -0.0643094 41.4661 0.24198ZM33.6928 7.26344C33.6916 7.33079 33.5044 7.67838 33.2768 8.03606C32.6521 9.01738 31.4437 11.2866 31.4436 11.4789C31.4435 11.5227 31.3333 11.7993 31.1987 12.0936C31.0641 12.3878 30.954 12.6845 30.954 12.753C30.954 12.8213 30.9131 12.9192 30.8631 12.9703C30.7311 13.1052 30.1131 15.5487 29.9359 16.6362C29.7838 17.569 29.7283 18.1246 29.6328 19.6707C29.5481 21.0425 29.2972 21.2325 27.5359 21.2593C26.1697 21.2801 25.9205 21.1753 25.6733 20.4758C25.4897 19.9564 25.6165 19.2719 26.2573 17.3214C26.7828 15.7218 26.8957 15.4399 27.4522 14.3358C28.3372 12.58 29.1083 11.4051 30.2787 10.0288C31.8626 8.16625 33.7028 6.67572 33.6928 7.26344ZM47.2523 26.8867C45.6318 26.9259 41.3166 27.1232 39.1276 27.2583C37.3433 27.3684 36.5484 27.4128 33.8906 27.5508C32.3563 27.6304 30.5723 27.7384 29.9262 27.7909C29.2801 27.8434 27.4961 27.9349 25.9618 27.9943C24.4274 28.0538 23.1112 28.1223 23.037 28.1464C22.8982 28.1917 22.9083 28.3514 23.114 29.3615C23.266 30.1083 23.6989 31.5366 23.908 31.9815C24.0173 32.214 24.1775 32.5896 24.2638 32.8162C24.7048 33.9727 25.6484 35.6088 26.4984 36.6906C26.7575 37.0205 26.9768 37.2904 26.9857 37.2904C26.9946 37.2904 27.2193 37.1857 27.4852 37.0579C28.8421 36.4053 29.4802 36.1208 29.9097 35.9771C31.2996 35.5124 33.6228 35.2115 35.2076 35.2913C36.6816 35.3654 44.4092 35.3632 45.4903 35.2882C46.6211 35.2099 47.2861 35.0761 47.9375 34.796C48.1528 34.7034 48.8136 34.4297 49.4058 34.1879C49.998 33.9462 50.5266 33.7134 50.5804 33.6706C50.6343 33.6278 51.1938 33.3693 51.8238 33.0961C52.4537 32.8229 53.0484 32.5559 53.1453 32.5027C53.3558 32.387 54.1206 32.0401 55.9642 31.224C56.718 30.8903 57.5549 30.5134 57.8241 30.3865C58.0933 30.2594 58.5778 30.0382 58.9008 29.8948C59.5464 29.6082 60.3375 29.2422 61.5624 28.6635C62.0034 28.4552 62.3916 28.2847 62.4252 28.2847C62.5646 28.2847 63.5374 27.7978 63.5998 27.6968C63.6371 27.6365 63.5861 27.4958 63.4867 27.3841C63.0455 26.8887 62.1856 26.7885 61.0477 27.1001C60.0669 27.3687 58.7366 27.7799 58.5093 27.8849C58.4016 27.9345 57.9611 28.0883 57.5304 28.2264C56.3337 28.6103 53.7049 29.5297 53.3465 29.6897C53.1711 29.768 52.8074 29.9064 52.5382 29.9974C52.269 30.0882 51.6082 30.3159 51.0699 30.5034C49.9959 30.8773 46.6929 31.584 45.5799 31.6782C44.7195 31.7509 44.4144 31.682 44.2092 31.3689C43.8544 30.8274 44.1202 30.079 44.7541 29.8345C45.0942 29.7032 46.4941 29.4634 46.9324 29.4612C47.2964 29.4594 49.5315 29.1025 50.92 28.8243C51.9009 28.6279 52.6325 28.2504 52.8271 27.8403C53.0174 27.4394 53.0164 27.3567 52.8183 27.0543L52.6581 26.8097L50.3956 26.8375C49.1514 26.8528 47.7368 26.875 47.2523 26.8867Z" fill="#EF4444"/>
<path d="M12.3878 56.1543V70.6997H10.044L3.19034 60.792H3.0696V70.6997H0.434659V56.1543H2.79261L9.6392 66.069H9.76705V56.1543H12.3878ZM19.4038 70.9128C18.3384 70.9128 17.4151 70.6784 16.6339 70.2097C15.8526 69.7409 15.2466 69.0851 14.8157 68.2423C14.3896 67.3995 14.1765 66.4147 14.1765 65.2878C14.1765 64.1609 14.3896 63.1737 14.8157 62.3261C15.2466 61.4786 15.8526 60.8204 16.6339 60.3517C17.4151 59.8829 18.3384 59.6486 19.4038 59.6486C20.4691 59.6486 21.3924 59.8829 22.1737 60.3517C22.9549 60.8204 23.5586 61.4786 23.9847 62.3261C24.4156 63.1737 24.631 64.1609 24.631 65.2878C24.631 66.4147 24.4156 67.3995 23.9847 68.2423C23.5586 69.0851 22.9549 69.7409 22.1737 70.2097C21.3924 70.6784 20.4691 70.9128 19.4038 70.9128ZM19.418 68.8531C19.9956 68.8531 20.4786 68.6945 20.8668 68.3773C21.2551 68.0553 21.5439 67.6244 21.7333 67.0847C21.9274 66.5449 22.0245 65.9436 22.0245 65.2807C22.0245 64.6131 21.9274 64.0094 21.7333 63.4696C21.5439 62.9251 21.2551 62.4918 20.8668 62.1699C20.4786 61.8479 19.9956 61.6869 19.418 61.6869C18.8261 61.6869 18.3337 61.8479 17.9407 62.1699C17.5524 62.4918 17.2612 62.9251 17.0671 63.4696C16.8777 64.0094 16.783 64.6131 16.783 65.2807C16.783 65.9436 16.8777 66.5449 17.0671 67.0847C17.2612 67.6244 17.5524 68.0553 17.9407 68.3773C18.3337 68.6945 18.8261 68.8531 19.418 68.8531ZM26.3132 70.6997V59.7906H28.7706V61.6443H28.8984C29.1257 61.0193 29.5021 60.5316 30.0277 60.1812C30.5533 59.8261 31.1806 59.6486 31.9098 59.6486C32.6484 59.6486 33.2711 59.8285 33.7777 60.1883C34.2891 60.5435 34.6489 61.0288 34.8572 61.6443H34.9709C35.2124 61.0382 35.6196 60.5553 36.1925 60.1954C36.7701 59.8309 37.4543 59.6486 38.245 59.6486C39.2488 59.6486 40.0679 59.9658 40.7024 60.6003C41.3369 61.2347 41.6541 62.1604 41.6541 63.3773V70.6997H39.076V63.775C39.076 63.0979 38.8961 62.6031 38.5362 62.2906C38.1764 61.9734 37.736 61.8148 37.2152 61.8148C36.5949 61.8148 36.1096 62.0089 35.7592 62.3972C35.4136 62.7807 35.2408 63.2802 35.2408 63.8957V70.6997H32.7195V63.6685C32.7195 63.105 32.549 62.6552 32.2081 62.319C31.8719 61.9829 31.4316 61.8148 30.8871 61.8148C30.5178 61.8148 30.1816 61.9095 29.8786 62.0989C29.5755 62.2835 29.334 62.5463 29.1541 62.8872C28.9742 63.2234 28.8842 63.6164 28.8842 64.0662V70.6997H26.3132Z" fill="#FAFAFA"/>
<path d="M55.8292 56.1543V70.6997H53.4854L46.6317 60.792H46.511V70.6997H43.8761V56.1543H46.234L53.0806 66.069H53.2085V56.1543H55.8292ZM62.8452 70.9128C61.7798 70.9128 60.8565 70.6784 60.0753 70.2097C59.294 69.7409 58.688 69.0851 58.2571 68.2423C57.831 67.3995 57.6179 66.4147 57.6179 65.2878C57.6179 64.1609 57.831 63.1737 58.2571 62.3261C58.688 61.4786 59.294 60.8204 60.0753 60.3517C60.8565 59.8829 61.7798 59.6486 62.8452 59.6486C63.9105 59.6486 64.8338 59.8829 65.6151 60.3517C66.3963 60.8204 67 61.4786 67.4261 62.3261C67.857 63.1737 68.0724 64.1609 68.0724 65.2878C68.0724 66.4147 67.857 67.3995 67.4261 68.2423C67 69.0851 66.3963 69.7409 65.6151 70.2097C64.8338 70.6784 63.9105 70.9128 62.8452 70.9128ZM62.8594 68.8531C63.437 68.8531 63.92 68.6945 64.3082 68.3773C64.6965 68.0553 64.9853 67.6244 65.1747 67.0847C65.3688 66.5449 65.4659 65.9436 65.4659 65.2807C65.4659 64.6131 65.3688 64.0094 65.1747 63.4696C64.9853 62.9251 64.6965 62.4918 64.3082 62.1699C63.92 61.8479 63.437 61.6869 62.8594 61.6869C62.2675 61.6869 61.7751 61.8479 61.3821 62.1699C60.9938 62.4918 60.7027 62.9251 60.5085 63.4696C60.3191 64.0094 60.2244 64.6131 60.2244 65.2807C60.2244 65.9436 60.3191 66.5449 60.5085 67.0847C60.7027 67.6244 60.9938 68.0553 61.3821 68.3773C61.7751 68.6945 62.2675 68.8531 62.8594 68.8531ZM69.7546 70.6997V59.7906H72.212V61.6443H72.3398C72.5671 61.0193 72.9435 60.5316 73.4691 60.1812C73.9947 59.8261 74.622 59.6486 75.3512 59.6486C76.0898 59.6486 76.7125 59.8285 77.2191 60.1883C77.7305 60.5435 78.0903 61.0288 78.2987 61.6443H78.4123C78.6538 61.0382 79.061 60.5553 79.6339 60.1954C80.2115 59.8309 80.8957 59.6486 81.6864 59.6486C82.6902 59.6486 83.5094 59.9658 84.1438 60.6003C84.7783 61.2347 85.0955 62.1604 85.0955 63.3773V70.6997H82.5174V63.775C82.5174 63.0979 82.3375 62.6031 81.9776 62.2906C81.6178 61.9734 81.1774 61.8148 80.6566 61.8148C80.0363 61.8148 79.551 62.0089 79.2006 62.3972C78.855 62.7807 78.6822 63.2802 78.6822 63.8957V70.6997H76.1609V63.6685C76.1609 63.105 75.9904 62.6552 75.6495 62.319C75.3133 61.9829 74.873 61.8148 74.3285 61.8148C73.9592 61.8148 73.623 61.9095 73.32 62.0989C73.0169 62.2835 72.7754 62.5463 72.5955 62.8872C72.4156 63.2234 72.3256 63.6164 72.3256 64.0662V70.6997H69.7546Z" fill="#EF4444"/>
<path d="M10.2221 83.1543C10.171 82.7224 9.9636 82.3872 9.59996 82.1486C9.23633 81.9099 8.79031 81.7906 8.2619 81.7906C7.87553 81.7906 7.53746 81.8531 7.24769 81.9781C6.96076 82.1031 6.73633 82.275 6.5744 82.4937C6.41531 82.7125 6.33576 82.9611 6.33576 83.2395C6.33576 83.4724 6.39116 83.6727 6.50195 83.8403C6.61559 84.0051 6.76048 84.1429 6.93661 84.2537C7.11275 84.3616 7.29741 84.4511 7.49059 84.5221C7.68377 84.5903 7.86133 84.6457 8.02326 84.6883L8.90962 84.927C9.1369 84.9866 9.38974 85.069 9.66815 85.1741C9.9494 85.2793 10.2179 85.4227 10.4735 85.6045C10.7321 85.7835 10.9451 86.0136 11.1127 86.2949C11.2804 86.5761 11.3642 86.9213 11.3642 87.3304C11.3642 87.802 11.2406 88.2281 10.9934 88.6088C10.7491 88.9895 10.3912 89.292 9.91957 89.5165C9.45082 89.7409 8.88121 89.8531 8.21076 89.8531C7.58576 89.8531 7.04457 89.7523 6.58718 89.5506C6.13263 89.3489 5.77468 89.0676 5.51332 88.7068C5.25479 88.346 5.10849 87.927 5.0744 87.4497H6.16531C6.19371 87.7793 6.30451 88.052 6.49769 88.2679C6.69371 88.481 6.94087 88.64 7.23917 88.7452C7.54031 88.8474 7.86417 88.8986 8.21076 88.8986C8.61417 88.8986 8.97639 88.8332 9.29741 88.7025C9.61843 88.569 9.87269 88.3844 10.0602 88.1486C10.2477 87.9099 10.3414 87.6315 10.3414 87.3133C10.3414 87.0236 10.2605 86.7878 10.0985 86.606C9.93661 86.4241 9.72354 86.2764 9.45934 86.1628C9.19514 86.0491 8.90962 85.9497 8.60281 85.8645L7.52894 85.5577C6.84712 85.3616 6.30735 85.0818 5.90962 84.7182C5.5119 84.3545 5.31303 83.8787 5.31303 83.2906C5.31303 82.802 5.44513 82.3758 5.70934 82.0122C5.97638 81.6457 6.33434 81.3616 6.7832 81.1599C7.23491 80.9554 7.73917 80.8531 8.29599 80.8531C8.85849 80.8531 9.35849 80.954 9.79599 81.1557C10.2335 81.3545 10.5801 81.6273 10.8358 81.9739C11.0943 82.3204 11.2306 82.7139 11.2449 83.1543H10.2221ZM14.4483 89.6997L12.454 83.1543H13.5108L14.9256 88.1656H14.9938L16.3915 83.1543H17.4654L18.8461 88.1486H18.9142L20.329 83.1543H21.3858L19.3915 89.6997H18.4029L16.9711 84.6713H16.8688L15.437 89.6997H14.4483ZM22.7154 89.6997V83.1543H23.7211V89.6997H22.7154ZM23.2267 82.0633C23.0307 82.0633 22.8617 81.9966 22.7196 81.8631C22.5804 81.7295 22.5108 81.569 22.5108 81.3815C22.5108 81.194 22.5804 81.0335 22.7196 80.9C22.8617 80.7665 23.0307 80.6997 23.2267 80.6997C23.4228 80.6997 23.5904 80.7665 23.7296 80.9C23.8716 81.0335 23.9426 81.194 23.9426 81.3815C23.9426 81.569 23.8716 81.7295 23.7296 81.8631C23.5904 81.9966 23.4228 82.0633 23.2267 82.0633ZM28.4778 83.1543V84.0065H24.9494V83.1543H28.4778ZM26.0062 89.6997V82.2508C26.0062 81.8758 26.0943 81.5633 26.2704 81.3133C26.4466 81.0633 26.6752 80.8758 26.9565 80.7508C27.2377 80.6258 27.5346 80.5633 27.8471 80.5633C28.0943 80.5633 28.296 80.5832 28.4522 80.623C28.6085 80.6628 28.725 80.6997 28.8017 80.7338L28.5119 81.6031C28.4608 81.5861 28.3897 81.5648 28.2988 81.5392C28.2108 81.5136 28.0943 81.5008 27.9494 81.5008C27.617 81.5008 27.377 81.5846 27.2292 81.7523C27.0843 81.9199 27.0119 82.1656 27.0119 82.4895V89.6997H26.0062ZM32.7338 83.1543V84.0065H29.3418V83.1543H32.7338ZM30.3304 81.5861H31.3361V87.8247C31.3361 88.1088 31.3773 88.3219 31.4597 88.4639C31.5449 88.6031 31.6529 88.6969 31.7836 88.7452C31.9171 88.7906 32.0577 88.8133 32.2054 88.8133C32.3162 88.8133 32.4071 88.8077 32.4782 88.7963C32.5492 88.7821 32.606 88.7707 32.6486 88.7622L32.8532 89.6656C32.785 89.6912 32.6898 89.7168 32.5676 89.7423C32.4455 89.7707 32.2907 89.7849 32.1032 89.7849C31.8191 89.7849 31.5407 89.7239 31.2679 89.6017C30.998 89.4795 30.7736 89.2935 30.5946 89.0435C30.4185 88.7935 30.3304 88.4781 30.3304 88.0974V81.5861ZM40.0932 89.8361C39.5478 89.8361 39.0662 89.6983 38.6486 89.4227C38.231 89.1443 37.9043 88.7523 37.6685 88.2466C37.4327 87.7381 37.3148 87.1372 37.3148 86.444C37.3148 85.7565 37.4327 85.1599 37.6685 84.6543C37.9043 84.1486 38.2324 83.7579 38.6529 83.4824C39.0733 83.2068 39.5591 83.069 40.1103 83.069C40.5364 83.069 40.873 83.14 41.1202 83.2821C41.3702 83.4213 41.5605 83.5804 41.6912 83.7594C41.8248 83.9355 41.9284 84.0804 42.0023 84.194H42.0875V80.9724H43.0932V89.6997H42.1216V88.694H42.0023C41.9284 88.8133 41.8233 88.9639 41.687 89.1457C41.5506 89.3247 41.356 89.4852 41.1032 89.6273C40.8503 89.7665 40.5137 89.8361 40.0932 89.8361ZM40.2296 88.9327C40.633 88.9327 40.9739 88.8275 41.2523 88.6173C41.5307 88.4043 41.7424 88.1102 41.8873 87.7352C42.0321 87.3574 42.1046 86.9213 42.1046 86.427C42.1046 85.9383 42.0336 85.5108 41.8915 85.1443C41.7495 84.775 41.5392 84.4881 41.2608 84.2835C40.9824 84.0761 40.6387 83.9724 40.2296 83.9724C39.8034 83.9724 39.4483 84.0818 39.1642 84.3006C38.883 84.5165 38.6713 84.8105 38.5293 85.1827C38.3901 85.552 38.3205 85.9668 38.3205 86.427C38.3205 86.8929 38.3915 87.3162 38.5336 87.6969C38.6784 88.0747 38.8915 88.3758 39.1728 88.6003C39.4569 88.8219 39.8091 88.9327 40.2296 88.9327ZM47.8191 89.8361C47.1884 89.8361 46.6444 89.6969 46.187 89.4185C45.7324 89.1372 45.3816 88.7452 45.1344 88.2423C44.8901 87.7366 44.7679 87.1486 44.7679 86.4781C44.7679 85.8077 44.8901 85.2168 45.1344 84.7054C45.3816 84.1912 45.7253 83.7906 46.1657 83.5037C46.6088 83.2139 47.1259 83.069 47.7168 83.069C48.0577 83.069 48.3944 83.1258 48.7267 83.2395C49.0591 83.3531 49.3617 83.5378 49.6344 83.7935C49.9071 84.0463 50.1245 84.3815 50.2864 84.7991C50.4483 85.2168 50.5293 85.731 50.5293 86.3418V86.7679H45.4838V85.8986H49.5066C49.5066 85.5293 49.4327 85.1997 49.285 84.9099C49.1401 84.6202 48.9327 84.3915 48.6628 84.2239C48.3958 84.0562 48.0804 83.9724 47.7168 83.9724C47.3162 83.9724 46.9696 84.0719 46.677 84.2707C46.3873 84.4668 46.1642 84.7224 46.008 85.0378C45.8517 85.3531 45.7736 85.6912 45.7736 86.052V86.6315C45.7736 87.1258 45.8588 87.5449 46.0293 87.8886C46.2026 88.2295 46.4426 88.4895 46.7495 88.6685C47.0563 88.8446 47.4128 88.9327 47.8191 88.9327C48.0833 88.9327 48.3219 88.8957 48.535 88.8219C48.7509 88.7452 48.937 88.6315 49.0932 88.481C49.2495 88.3275 49.3702 88.1372 49.4554 87.9099L50.427 88.1827C50.3248 88.5122 50.1529 88.802 49.9114 89.052C49.6699 89.2991 49.3716 89.4923 49.0165 89.6315C48.6614 89.7679 48.2623 89.8361 47.8191 89.8361ZM53.0648 80.9724V89.6997H52.0591V80.9724H53.0648ZM54.9068 89.6997V83.1543H55.9125V89.6997H54.9068ZM55.4181 82.0633C55.2221 82.0633 55.0531 81.9966 54.911 81.8631C54.7718 81.7295 54.7022 81.569 54.7022 81.3815C54.7022 81.194 54.7718 81.0335 54.911 80.9C55.0531 80.7665 55.2221 80.6997 55.4181 80.6997C55.6142 80.6997 55.7818 80.7665 55.921 80.9C56.063 81.0335 56.1341 81.194 56.1341 81.3815C56.1341 81.569 56.063 81.7295 55.921 81.8631C55.7818 81.9966 55.6142 82.0633 55.4181 82.0633ZM63.1067 83.1543L60.6863 89.6997H59.6635L57.2431 83.1543H58.334L60.1408 88.3702H60.209L62.0158 83.1543H63.1067ZM66.9441 89.8361C66.3134 89.8361 65.7694 89.6969 65.312 89.4185C64.8574 89.1372 64.5066 88.7452 64.2594 88.2423C64.0151 87.7366 63.8929 87.1486 63.8929 86.4781C63.8929 85.8077 64.0151 85.2168 64.2594 84.7054C64.5066 84.1912 64.8503 83.7906 65.2907 83.5037C65.7338 83.2139 66.2509 83.069 66.8418 83.069C67.1827 83.069 67.5194 83.1258 67.8517 83.2395C68.1841 83.3531 68.4867 83.5378 68.7594 83.7935C69.0321 84.0463 69.2495 84.3815 69.4114 84.7991C69.5733 85.2168 69.6543 85.731 69.6543 86.3418V86.7679H64.6088V85.8986H68.6316C68.6316 85.5293 68.5577 85.1997 68.41 84.9099C68.2651 84.6202 68.0577 84.3915 67.7878 84.2239C67.5208 84.0562 67.2054 83.9724 66.8418 83.9724C66.4412 83.9724 66.0946 84.0719 65.802 84.2707C65.5123 84.4668 65.2892 84.7224 65.133 85.0378C64.9767 85.3531 64.8986 85.6912 64.8986 86.052V86.6315C64.8986 87.1258 64.9838 87.5449 65.1543 87.8886C65.3276 88.2295 65.5676 88.4895 65.8745 88.6685C66.1813 88.8446 66.5378 88.9327 66.9441 88.9327C67.2083 88.9327 67.4469 88.8957 67.66 88.8219C67.8759 88.7452 68.062 88.6315 68.2182 88.481C68.3745 88.3275 68.4952 88.1372 68.5804 87.9099L69.552 88.1827C69.4498 88.5122 69.2779 88.802 69.0364 89.052C68.7949 89.2991 68.4966 89.4923 68.1415 89.6315C67.7864 89.7679 67.3873 89.8361 66.9441 89.8361ZM71.1841 89.6997V83.1543H72.1557V84.1429H72.2239C72.3432 83.819 72.5591 83.5562 72.8716 83.3545C73.1841 83.1528 73.5364 83.052 73.9284 83.052C74.0023 83.052 74.0946 83.0534 74.2054 83.0562C74.3162 83.0591 74.4 83.0633 74.4569 83.069V84.0918C74.4228 84.0832 74.3446 84.0704 74.2225 84.0534C74.1032 84.0335 73.9767 84.0236 73.8432 84.0236C73.525 84.0236 73.2409 84.0903 72.9909 84.2239C72.7438 84.3545 72.5478 84.5364 72.4029 84.7693C72.2608 84.9994 72.1898 85.2622 72.1898 85.5577V89.6997H71.1841ZM76.4959 92.1543C76.3255 92.1543 76.1735 92.14 76.04 92.1116C75.9064 92.0861 75.8141 92.0605 75.763 92.0349L76.0186 91.1486C76.263 91.2111 76.4789 91.2338 76.6664 91.2168C76.8539 91.1997 77.0201 91.1159 77.165 90.9653C77.3127 90.8176 77.4476 90.5775 77.5698 90.2452L77.7573 89.7338L75.3368 83.1543H76.4277L78.2346 88.3702H78.3027L80.1096 83.1543H81.2005L78.4221 90.6543C78.2971 90.9923 78.1422 91.2722 77.9576 91.4937C77.7729 91.7182 77.5584 91.8844 77.3141 91.9923C77.0726 92.1003 76.7999 92.1543 76.4959 92.1543Z" fill="#F4F4F5"/>
</svg>
